HIERARCHY
ROOT hip
{
	OFFSET 0.000000 0.000000 0.000000
	CHANNELS 6 Xposition Yposition Zposition Xrotation Zrotation Yrotation 
	JOINT abdomen
	{
		OFFSET 0.000000 3.422050 0.000000
		CHANNELS 3 Xrotation Zrotation Yrotation 
		JOINT chest
		{
			OFFSET 0.000000 8.486693 -0.684411
			CHANNELS 3 Xrotation Zrotation Yrotation 
			JOINT neck
			{
				OFFSET 0.000000 10.266162 -0.273764
				CHANNELS 3 Xrotation Zrotation Yrotation 
				JOINT head
				{
					OFFSET 0.000000 3.148285 0.000000
					CHANNELS 3 Xrotation Zrotation Yrotation 
					End Site
					{
						OFFSET 0.000000 3.148289 0.000000
					}
				}
			}
			JOINT lCollar
			{
				OFFSET 3.422053 6.707223 -0.821293
				CHANNELS 3 Yrotation Zrotation Xrotation 
				JOINT lShldr
				{
					OFFSET 3.285171 0.000000 0.000000
					CHANNELS 3 Zrotation Yrotation Xrotation 
					JOINT lForeArm
					{
						OFFSET 10.129278 0.000000 0.000000
						CHANNELS 3 Yrotation Zrotation Xrotation 
						JOINT lHand
						{
							OFFSET 8.486692 0.000000 0.000000
							CHANNELS 3 Zrotation Yrotation Xrotation 
							End Site
							{
								OFFSET 4.106464 0.000000 0.000000
							}
						}
					}
				}
			}
			JOINT rCollar
			{
				OFFSET -3.558935 6.707223 -0.821293
				CHANNELS 3 Yrotation Zrotation Xrotation 
				JOINT rShldr
				{
					OFFSET -3.148289 0.000000 0.000000
					CHANNELS 3 Zrotation Yrotation Xrotation 
					JOINT rForeArm
					{
						OFFSET -10.266159 0.000000 0.000000
						CHANNELS 3 Yrotation Zrotation Xrotation 
						JOINT rHand
						{
							OFFSET -8.349810 0.000000 0.000000
							CHANNELS 3 Zrotation Yrotation Xrotation 
							End Site
							{
								OFFSET -4.106464 0.000000 0.000000
							}
						}
					}
				}
			}
		}
	}
	JOINT lThigh
	{
		OFFSET 5.338403 -1.642589 1.368821
		CHANNELS 3 Xrotation Zrotation Yrotation 
		JOINT lShin
		{
			OFFSET -2.053232 -20.121670 0.000000
			CHANNELS 3 Xrotation Zrotation Yrotation 
			JOINT lFoot
			{
				OFFSET 0.000000 -19.300380 -1.231939
				CHANNELS 3 Xrotation Yrotation Zrotation 
				End Site
				{
					OFFSET 0.000000 -2.463878 4.653993
				}
			}
		}
	}
	JOINT rThigh
	{
		OFFSET -5.338403 -1.642589 1.368821
		CHANNELS 3 Xrotation Zrotation Yrotation 
		JOINT rShin
		{
			OFFSET 2.053232 -20.121670 0.000000
			CHANNELS 3 Xrotation Zrotation Yrotation 
			JOINT rFoot
			{
				OFFSET 0.000000 -19.300380 -1.231939
				CHANNELS 3 Xrotation Yrotation Zrotation 
				End Site
				{
					OFFSET 0.000000 -2.463878 4.653993
				}
			}
		}
	}
}
MOTION
Frames: 15
Frame Time: 0.022176
0.000000 43.528500 0.000000 0.000000 0.000000 0.000000 0.000000 0.000000 0.000000 0.000000 0.000000 0.000000 0.000000 0.000000 0.000000 0.000000 0.000000 0.000000 0.000000 0.000000 0.000000 0.000000 0.000000 0.000000 0.000000 0.000000 0.000000 0.000000 0.000000 0.000000 0.000000 0.000000 0.000000 0.000000 0.000000 0.000000 0.000000 0.000000 0.000000 0.000000 0.000000 0.000000 0.000000 0.000000 0.000000 0.000000 0.000000 0.000000 0.000000 0.000000 0.000000 0.000000 0.000000 0.000000 0.000000 0.000000 0.000000 0.000000 0.000000 0.000000 
0.000000 10.922924 0.000000 70.997055 0.000000 0.000000 51.485352 -0.723925 -0.580074 -32.433472 -0.627813 -0.449299 -24.006269 0.000000 0.000000 -22.342703 -0.055549 -0.001506 -0.001347 -8.002656 -0.194655 -60.741528 -62.002594 -20.447052 -122.018135 -0.008075 53.997295 -7.000333 -0.003134 7.199666 -0.002182 7.999156 -0.194408 60.731537 61.998016 -20.454638 121.995705 -0.005257 54.000729 6.996620 -0.000135 7.199450 -114.439499 57.059475 -36.672302 132.448257 -2.389071 -0.187675 17.299305 1.707136 4.877020 -114.516380 -57.122509 36.724457 132.445847 2.325058 0.215819 17.867331 -1.766964 -4.870011 
0.000000 10.922924 0.000000 71.308685 0.000000 0.000000 51.091187 -0.723910 -0.579998 -32.433472 -0.627813 -0.449299 -24.349958 0.359616 0.072022 -22.383108 0.221001 0.004794 -0.001347 -8.002656 -0.194655 -60.741550 -62.002605 -20.447052 -122.018135 -0.008075 53.997295 -7.000333 -0.003134 7.199666 -0.002182 7.999157 -0.194408 60.731537 61.998016 -20.454638 121.995705 -0.005257 54.000729 6.996620 -0.000135 7.199450 -115.061111 57.025578 -37.003063 132.448257 -2.389071 -0.187675 17.405649 1.742708 4.638367 -115.137444 -57.087120 37.055149 132.445847 2.325058 0.215819 17.962038 -1.800214 -4.631342 
0.000000 10.922924 0.000000 71.620438 0.000000 0.000000 50.696804 -0.723895 -0.579922 -32.433472 -0.627813 -0.449299 -24.693647 0.720103 0.141976 -22.423504 0.497659 0.010901 -0.001347 -8.002656 -0.194655 -60.741528 -62.002594 -20.447052 -122.018135 -0.008075 53.997295 -7.000333 -0.003134 7.199666 -0.002182 7.999156 -0.194408 60.731556 61.998024 -20.454630 121.995705 -0.005257 54.000732 6.996620 -0.000135 7.199450 -115.682053 56.989697 -37.332973 132.448257 -2.389071 -0.187675 17.512169 1.777844 4.399584 -115.757813 -57.049774 37.384964 132.445847 2.325058 0.215819 18.056900 -1.833078 -4.392558 
0.000000 10.922924 0.000000 71.932289 0.000000 0.000000 50.302204 -0.723879 -0.579847 -32.433472 -0.627813 -0.449299 -25.037348 1.081438 0.209852 -22.463886 0.774423 0.016816 -0.001347 -8.002656 -0.194655 -60.741535 -62.002605 -20.447063 -122.018135 -0.008077 53.997299 -7.000334 -0.003134 7.199666 -0.002182 7.999157 -0.194408 60.731537 61.998016 -20.454638 121.995705 -0.005256 54.000729 6.996620 -0.000135 7.199450 -116.302361 56.951878 -37.662014 132.448257 -2.389071 -0.187675 17.618866 1.812544 4.160679 -116.377449 -57.010460 37.713837 132.445847 2.325058 0.215819 18.151924 -1.865553 -4.153664 
0.000000 10.922924 0.000000 72.244232 0.000000 0.000000 49.907421 -0.723862 -0.579771 -32.433472 -0.627813 -0.449299 -25.381056 1.443593 0.275644 -22.504246 1.051289 0.022539 -0.001347 -8.002656 -0.194655 -60.741528 -62.002594 -20.447052 -122.018150 -0.008077 53.997299 -7.000334 -0.003134 7.199666 -0.002182 7.999156 -0.194408 60.731537 61.998016 -20.454638 121.995705 -0.005256 54.000729 6.996620 -0.000135 7.199450 -116.921898 56.912079 -37.990093 132.448273 -2.389071 -0.187675 17.725723 1.846807 3.921653 -116.996323 -56.969196 38.041718 132.445847 2.325058 0.215819 18.247107 -1.897639 -3.914662 
0.000000 10.922924 0.000000 72.556244 0.000000 0.000000 49.512432 -0.723845 -0.579695 -32.433472 -0.627813 -0.449299 -25.724802 1.806545 0.339343 -22.544615 1.328254 0.028068 -0.001347 -8.002656 -0.194655 -60.741528 -62.002602 -20.447058 -122.018150 -0.008078 53.997299 -7.000334 -0.003134 7.199666 -0.002182 7.999158 -0.194408 60.731544 61.998024 -20.454641 121.995705 -0.005256 54.000729 6.996620 -0.000135 7.199450 -117.540634 56.870331 -38.317165 132.448273 -2.389071 -0.187675 17.832752 1.880631 3.682508 -117.614326 -56.925995 38.368557 132.445862 2.325058 0.215819 18.342442 -1.929333 -3.675552 
0.000000 10.922924 0.000000 72.868378 0.000000 0.000000 49.117279 -0.723828 -0.579620 -32.433468 -0.627813 -0.449299 -26.068586 2.170267 0.400942 -22.584963 1.605313 0.033405 -0.001347 -8.002654 -0.194655 -60.741524 -62.002586 -20.447048 -122.018135 -0.008077 53.997292 -7.000333 -0.003134 7.199666 -0.002182 7.999156 -0.194408 60.731529 61.998009 -20.454632 121.995705 -0.005259 54.000725 6.996619 -0.000135 7.199449 -118.158478 56.826660 -38.643169 132.448257 -2.389071 -0.187674 17.939941 1.914014 3.443249 -118.231407 -56.880848 38.694267 132.445847 2.325058 0.215819 18.437922 -1.960635 -3.436341 
0.000000 10.922924 0.000000 73.180595 0.000000 0.000000 48.721958 -0.723810 -0.579544 -32.433468 -0.627813 -0.449299 -26.412430 2.534733 0.460432 -22.625305 1.882464 0.038549 -0.001347 -8.002656 -0.194655 -60.741524 -62.002586 -20.447054 -122.018135 -0.008075 53.997295 -7.000333 -0.003134 7.199665 -0.002182 7.999156 -0.194408 60.731529 61.998009 -20.454639 121.995705 -0.005257 54.000725 6.996619 -0.000135 7.199449 -118.775391 56.781017 -38.968037 132.448257 -2.389070 -0.187674 18.047297 1.946956 3.203879 -118.847504 -56.833767 39.018803 132.445847 2.325057 0.215819 18.533554 -1.991544 -3.197031 
0.000000 10.922924 0.000000 73.492874 0.000000 0.000000 48.326469 -0.723791 -0.579469 -32.433472 -0.627813 -0.449299 -26.756353 2.899919 0.517806 -22.665646 2.159704 0.043500 -0.001347 -8.002656 -0.194655 -60.741524 -62.002586 -20.447048 -122.018135 -0.008077 53.997295 -7.000333 -0.003134 7.199665 -0.002182 7.999156 -0.194408 60.731537 61.998016 -20.454638 121.995689 -0.005257 54.000721 6.996619 -0.000135 7.199449 -119.391296 56.733459 -39.291714 132.448257 -2.389070 -0.187675 18.154806 1.979455 2.964400 -119.462578 -56.784771 39.342125 132.445847 2.325057 0.215819 18.629337 -2.022059 -2.957623 
0.000000 10.922924 0.000000 73.805229 0.000000 0.000000 47.930824 -0.723772 -0.579394 -32.433472 -0.627813 -0.449299 -27.100351 3.265796 0.573055 -22.705975 2.437029 0.048258 -0.001347 -8.002656 -0.194655 -60.741528 -62.002594 -20.447052 -122.018135 -0.008078 53.997292 -7.000333 -0.003134 7.199666 -0.002182 7.999156 -0.194408 60.731529 61.998009 -20.454632 121.995705 -0.005257 54.000729 6.996620 -0.000135 7.199450 -120.006126 56.683979 -39.614140 132.448257 -2.389071 -0.187675 18.262468 2.011509 2.724816 -120.076530 -56.733849 39.664135 132.445847 2.325057 0.215819 18.725264 -2.052179 -2.718123 
0.000000 10.922924 0.000000 74.117668 0.000000 0.000000 47.535053 -0.723752 -0.579319 -32.433472 -0.627813 -0.449299 -27.444458 3.632340 0.626172 -22.746307 2.714435 0.052822 -0.001347 -8.002656 -0.194655 -60.741524 -62.002586 -20.447048 -122.018120 -0.008074 53.997295 -7.000333 -0.003134 7.199666 -0.002182 7.999156 -0.194408 60.731537 61.998016 -20.454638 121.995705 -0.005257 54.000729 6.996620 -0.000135 7.199450 -120.619873 56.632591 -39.935280 132.448257 -2.389071 -0.187675 18.370289 2.043119 2.485130 -120.689331 -56.681030 39.984818 132.445847 2.325058 0.215819 18.821331 -2.081902 -2.478532 
0.000000 10.922924 0.000000 74.430161 0.000000 0.000000 47.139122 -0.723732 -0.579244 -32.433472 -0.627813 -0.449299 -27.788677 3.999524 0.677149 -22.786640 2.991920 0.057194 -0.001347 -8.002656 -0.194655 -60.741528 -62.002594 -20.447052 -122.018135 -0.008075 53.997295 -7.000333 -0.003134 7.199666 -0.002182 7.999156 -0.194408 60.731537 61.998016 -20.454638 121.995705 -0.005257 54.000729 6.996620 -0.000135 7.199450 -121.232407 56.579311 -40.255051 132.448257 -2.389071 -0.187675 18.478249 2.074281 2.245344 -121.300896 -56.626301 40.304096 132.445847 2.325058 0.215819 18.917536 -2.111228 -2.238852 
0.000000 10.922924 0.000000 74.742722 0.000000 0.000000 46.743099 -0.723712 -0.579169 -32.433472 -0.627813 -0.449299 -28.133020 4.367321 0.725977 -22.826967 3.269479 0.061372 -0.001347 -8.002656 -0.194655 -60.741528 -62.002602 -20.447058 -122.018135 -0.008075 53.997295 -7.000333 -0.003134 7.199666 -0.002182 7.999156 -0.194408 60.731537 61.998016 -20.454638 121.995705 -0.005257 54.000729 6.996620 -0.000135 7.199450 -121.843704 56.524120 -40.573410 132.448257 -2.389071 -0.187675 18.586365 2.104997 2.005465 -121.911201 -56.569698 40.621925 132.445847 2.325058 0.215819 19.013878 -2.140154 -1.999088 
0.000000 10.922924 0.000000 75.055328 0.000000 0.000000 46.346939 -0.723690 -0.579094 -32.433472 -0.627813 -0.449299 -28.477505 4.735703 0.772648 -22.867296 3.547109 0.065357 -0.001347 -8.002656 -0.194655 -60.741528 -62.002594 -20.447052 -122.018135 -0.008075 53.997295 -7.000333 -0.003134 7.199666 -0.002182 7.999157 -0.194408 60.731537 61.998016 -20.454638 121.995705 -0.005257 54.000729 6.996620 -0.000135 7.199450 -122.453712 56.467049 -40.890305 132.448257 -2.389071 -0.187675 18.694622 2.135263 1.765492 -122.520157 -56.511238 40.938244 132.445847 2.325058 0.215819 19.110352 -2.168681 -1.759241 
